<?xml version="1.0" encoding="utf-8"?>

<!-- Uploaded to: SVG Repo, www.svgrepo.com, Generator: SVG Repo Mixer Tools -->
<svg version="1.1" id="Icons" xmlns="http://www.w3.org/2000/svg" xmlns:xlink="http://www.w3.org/1999/xlink" 
	 viewBox="0 0 32 32" xml:space="preserve">
<style type="text/css">
	.st0{fill:none;stroke:#000000;stroke-width:2;stroke-linecap:round;stroke-linejoin:round;stroke-miterlimit:10;}
</style>
<path d="M25.3,23.9c-0.2-1.6-1.2-3-2.6-3.7L18.5,18c-0.3-0.2-0.7-0.1-0.9,0L16,18.8L14.8,18c0.1-0.3,0.2-0.7,0.2-1.1
	c0.3,0.1,0.7,0.1,1,0.1c2.8,0,5-2.2,5-5v-2h1c0.6,0,1-0.4,1-1V6.5C23,4,21,2,18.5,2c-1.7,0-3.1,0.9-3.9,2.3C14.3,4.1,13.9,4,13.5,4
	C12.1,4,11,5.1,11,6.5V12c0,1.6,0.8,3.1,2,4v0.5c0,0.5-0.1,0.9-0.3,1.3c0,0,0,0,0,0c0,0.1-0.1,0.1-0.1,0.2c-0.3,0.5-0.7,0.9-1.2,1.2
	l-2,1c-1.4,0.7-2.4,2.1-2.6,3.7l-0.7,5c0,0.3,0,0.6,0.2,0.8C6.4,29.9,6.7,30,7,30h18c0.3,0,0.6-0.1,0.8-0.3c0.2-0.2,0.3-0.5,0.2-0.8
	L25.3,23.9z M21,26h-3c-0.6,0-1-0.4-1-1s0.4-1,1-1h3c0.6,0,1,0.4,1,1S21.6,26,21,26z"/>
</svg>